# xmcd
#
# Track frame offsets: 
#        150
#        18373
#        37930
#        58568
#        73780
#        92998
#        116856
#        136472
#
# Disc length: 1953 seconds
#
# Revision: 0
# Processed by: cddbd v1.5.2PL0 Copyright (c) Steve Scherf et al.
# Submitted via: ExactAudioCopy v1.0b6
#
DISCID=6e079f08
DTITLE=박정현 - Gift
DYEAR=2012
DGENRE=R&B
TTITLE0=Beautiful You
TTITLE1=사람, 사랑
TTITLE2=잘자요 그대
TTITLE3=너 말이야
TTITLE4=우린 참 좋았는데
TTITLE5=도착
TTITLE6=지금 이순간 (2012 런던올림픽 MBC공식응원가 part 2)
TTITLE7=Pokarekare Ana
EXTD=
EXTT0=
EXTT1=
EXTT2=
EXTT3=
EXTT4=
EXTT5=
EXTT6=
EXTT7=
PLAYORDER=
